<svg xmlns="http://www.w3.org/2000/svg" version="1.1" xmlns:xlink="http://www.w3.org/1999/xlink" viewBox="0 0 200 200"><rect width="200" height="200" fill="url('#gradient')"></rect><defs><linearGradient id="gradient" gradientTransform="rotate(45 0.5 0.5)"><stop offset="0%" stop-color="#26744a"></stop><stop offset="100%" stop-color="#fcfbf3"></stop></linearGradient></defs><g><g fill="#1b6ab9" transform="matrix(3.9502786112301758,0,0,3.9502786112301758,5.76368214953267,129.23440434766133)" stroke="#2fccd2" stroke-width="0.2"><path d="M12.96-14.22L12.96 0L9.55 0L9.55-5.94L4.50-5.94L4.50 0L1.07 0L1.07-14.22L4.50-14.22L4.50-8.57L9.55-8.57L9.55-14.22L12.96-14.22ZM20.09 0.20L20.09 0.20Q17.66 0.20 16.15-1.25Q14.65-2.71 14.65-5.03L14.65-5.03L14.65-5.30Q14.65-6.92 15.25-8.16Q15.85-9.40 17.00-10.08Q18.15-10.76 19.74-10.76L19.74-10.76Q21.96-10.76 23.25-9.38Q24.54-8.00 24.54-5.53L24.54-5.53L24.54-4.25L18.00-4.25Q18.17-3.36 18.77-2.85Q19.37-2.34 20.31-2.34L20.31-2.34Q21.88-2.34 22.75-3.44L22.75-3.44L24.26-1.66Q23.64-0.81 22.51-0.31Q21.39 0.20 20.09 0.20ZM19.72-8.22L19.72-8.22Q18.27-8.22 18.00-6.31L18.00-6.31L21.32-6.31L21.32-6.56Q21.34-7.35 20.92-7.79Q20.50-8.22 19.72-8.22ZM29.34-15L29.34 0L26.04 0L26.04-15L29.34-15ZM34.83-15L34.83 0L31.53 0L31.53-15L34.83-15ZM36.46-4.82L36.45-5.38Q36.45-6.96 37.06-8.20Q37.68-9.43 38.83-10.10Q39.98-10.76 41.53-10.76L41.53-10.76Q43.91-10.76 45.27-9.29Q46.64-7.82 46.64-5.29L46.64-5.29L46.64-5.18Q46.64-2.71 45.27-1.25Q43.90 0.20 41.55 0.20L41.55 0.20Q39.30 0.20 37.93-1.16Q36.56-2.51 36.46-4.82L36.46-4.82ZM39.75-5.77L39.74-5.18Q39.74-3.71 40.20-3.03Q40.65-2.34 41.55-2.34L41.55-2.34Q43.31-2.34 43.35-5.05L43.35-5.05L43.35-5.38Q43.35-8.22 41.53-8.22L41.53-8.22Q39.88-8.22 39.75-5.77L39.75-5.77Z"></path></g></g></svg>